# xmcd
#
# Track frame offsets:
#	182
#	13097
#	22615
#	33232
#	42530
#	53422
#	67267
#	77587
#	88227
#	98797
#	110600
#	121410
#	134465
#	147785
#	156622
#	170135
#	182057
#	194787
#	205057
#	215440
#	227202
#
# Disc length: 3169 seconds
#
# Revision: 0
# Processed by: cddbd v1.5.2PL0 Copyright (c) Steve Scherf et al.
# Submitted via: EasyCDDAExtractor 12.0.0.1
#
DISCID=330c5f15
DTITLE=Michel Paje - Dans le vent
DYEAR=1993
DGENRE=Chanson
TTITLE0=Nous on est dans le vent
TTITLE1=Adolescence
TTITLE2=Notre amour sur le sable
TTITLE3=Tout au long de ma rue
TTITLE4=Tu dis n'importe quoi
TTITLE5=J'avais juré
TTITLE6=C'est notre age
TTITLE7=T'as besoin de moi
TTITLE8=Elle aime tout sans moi
TTITLE9=On n'a pas su s'aimer
TTITLE10=Maintenant je sais
TTITLE11=Premiers baisers
TTITLE12=Bientôt
TTITLE13=La ronde des heures
TTITLE14=Bye Bye
TTITLE15=Trois coeurs
TTITLE16=Les 12/18
TTITLE17=Les vagues te diront
TTITLE18=Ma porte ouverte
TTITLE19=Shade um dich Angelina
TTITLE20=Un garçon sauvage
EXTD=
EXTT0=
EXTT1=
EXTT2=
EXTT3=
EXTT4=
EXTT5=
EXTT6=
EXTT7=
EXTT8=
EXTT9=
EXTT10=
EXTT11=
EXTT12=
EXTT13=
EXTT14=
EXTT15=
EXTT16=
EXTT17=
EXTT18=
EXTT19=
EXTT20=
PLAYORDER=
